<?xml version="1.0" encoding="iso-8859-1"?>
<!-- Generator: Adobe Illustrator 17.1.0, SVG Export Plug-In . SVG Version: 6.00 Build 0)  -->
<!DOCTYPE svg PUBLIC "-//W3C//DTD SVG 1.1//EN" "http://www.w3.org/Graphics/SVG/1.1/DTD/svg11.dtd">
<svg version="1.1" id="Capa_1" xmlns="http://www.w3.org/2000/svg" xmlns:xlink="http://www.w3.org/1999/xlink" x="0px" y="0px"
	 viewBox="0 0 283 283" style="enable-background:new 0 0 283 283;" xml:space="preserve">
<g>
	<path d="M283,28c0-11.046-8.954-20-20-20H20C8.954,8,0,16.954,0,28v227c0,11.046,8.954,20,20,20h243c11.046,0,20-8.954,20-20V28z
		 M46,251H22v-24h24V251z M46,55H22V31h24V55z M142.333,228.733C93.957,228.733,54.6,189.376,54.6,141s39.357-87.733,87.733-87.733
		c48.377,0,87.734,39.357,87.734,87.733S190.71,228.733,142.333,228.733z M261,251h-24v-24h24V251z M261,55h-24V31h24V55z"/>
	<path d="M142.333,83.267C110.499,83.267,84.6,109.166,84.6,141s25.899,57.733,57.733,57.733c31.835,0,57.734-25.899,57.734-57.733
		S174.168,83.267,142.333,83.267z M142.333,165.211c-13.371,0-24.211-10.839-24.211-24.211s10.839-24.211,24.211-24.211
		s24.211,10.839,24.211,24.211S155.705,165.211,142.333,165.211z"/>
</g>
<g>
</g>
<g>
</g>
<g>
</g>
<g>
</g>
<g>
</g>
<g>
</g>
<g>
</g>
<g>
</g>
<g>
</g>
<g>
</g>
<g>
</g>
<g>
</g>
<g>
</g>
<g>
</g>
<g>
</g>
</svg>
