<?xml version="1.0" encoding="iso-8859-1"?>
<!-- Generator: Adobe Illustrator 19.0.0, SVG Export Plug-In . SVG Version: 6.00 Build 0)  -->
<svg version="1.1" id="Layer_1" xmlns="http://www.w3.org/2000/svg" xmlns:xlink="http://www.w3.org/1999/xlink" x="0px" y="0px"
	 viewBox="0 0 300 300" style="enable-background:new 0 0 300 300;" xml:space="preserve">
<g>
	<g>
		<g>
			<path d="M276.706,78.125H187.5c-0.374,0-0.738,0.039-1.093,0.101c-9.235-4.073-19.433-6.351-30.157-6.351
				c-10.723,0-20.919,2.279-30.153,6.352c-0.357-0.063-0.722-0.102-1.097-0.102H29.037C14.612,78.125,0,85.844,0,100.563v85.169
				c0,14.806,14.65,29.894,29.037,29.894H37.5c-3.456,0-6.25,2.794-6.25,6.25s2.794,6.25,6.25,6.25h25c3.456,0,6.25-2.794,6.25-6.25
				s-2.794-6.25-6.25-6.25H125c0.372,0,0.734-0.038,1.088-0.1c9.237,4.076,19.435,6.357,30.162,6.357
				c10.728,0,20.928-2.281,30.165-6.356c0.353,0.062,0.714,0.1,1.085,0.1h50c-3.456,0-6.25,2.794-6.25,6.25s2.794,6.25,6.25,6.25h25
				c3.456,0,6.25-2.794,6.25-6.25s-2.794-6.25-6.25-6.25h14.206c14.575,0,23.294-15.2,23.294-29.894v-85.169
				C300,86.306,291.5,78.125,276.706,78.125z M29.037,203.125c-7.419,0-16.537-9.588-16.537-17.394v-7.606h25
				c3.456,0,6.25-2.794,6.25-6.25s-2.794-6.25-6.25-6.25h-25v-12.5h25c3.456,0,6.25-2.794,6.25-6.25s-2.794-6.25-6.25-6.25h-25
				v-12.5h25c3.456,0,6.25-2.794,6.25-6.25s-2.794-6.25-6.25-6.25h-25v-15.063c0-7.287,9.894-9.938,16.537-9.938h77.688
				c-15.6,13.754-25.47,33.865-25.47,56.25c0,22.383,9.867,42.495,25.466,56.25H29.037z M93.756,146.875
				c0-34.463,28.031-62.5,62.494-62.5c34.469,0,62.506,28.037,62.506,62.5c0,34.469-28.037,62.506-62.506,62.506
				C121.787,209.381,93.756,181.344,93.756,146.875z M287.5,185.731c0,7.294-3.75,17.394-10.794,17.394h-70.92
				c15.601-13.755,25.47-33.867,25.47-56.25c0-22.385-9.871-42.496-25.474-56.25h70.924c8.987,0,10.794,3.813,10.794,9.938v15.063
				h-25c-3.456,0-6.25,2.794-6.25,6.25s2.794,6.25,6.25,6.25h25v12.5h-25c-3.456,0-6.25,2.794-6.25,6.25s2.794,6.25,6.25,6.25h25
				v12.5h-25c-3.456,0-6.25,2.794-6.25,6.25s2.794,6.25,6.25,6.25h25V185.731z"/>
			<path d="M156.244,109.375c-20.675,0-37.494,16.819-37.494,37.494c0,20.688,16.819,37.512,37.494,37.512
				c20.688,0,37.506-16.825,37.506-37.512C193.75,126.194,176.931,109.375,156.244,109.375z M156.244,171.881
				c-13.781,0-24.994-11.219-24.994-25.012c0-13.781,11.213-24.994,24.994-24.994c13.787,0,25.006,11.213,25.006,24.994
				C181.25,160.662,170.031,171.881,156.244,171.881z"/>
		</g>
	</g>
</g>
<g>
</g>
<g>
</g>
<g>
</g>
<g>
</g>
<g>
</g>
<g>
</g>
<g>
</g>
<g>
</g>
<g>
</g>
<g>
</g>
<g>
</g>
<g>
</g>
<g>
</g>
<g>
</g>
<g>
</g>
</svg>
