<?xml version="1.0" encoding="iso-8859-1"?>
<!-- Generator: Adobe Illustrator 16.0.0, SVG Export Plug-In . SVG Version: 6.00 Build 0)  -->
<!DOCTYPE svg PUBLIC "-//W3C//DTD SVG 1.1//EN" "http://www.w3.org/Graphics/SVG/1.1/DTD/svg11.dtd">
<svg version="1.1" id="Capa_1" xmlns="http://www.w3.org/2000/svg" xmlns:xlink="http://www.w3.org/1999/xlink" x="0px" y="0px"
	 width="431.494px" height="431.494px" viewBox="0 0 431.494 431.494" style="enable-background:new 0 0 431.494 431.494;"
	 xml:space="preserve">
<g>
	<g>
		<path d="M343.636,0H87.855c-5.485,0-9.933,4.441-9.933,9.934v378.762c0,5.489,4.447,9.933,9.933,9.933h23.824v22.932
			c0,5.491,4.448,9.934,9.934,9.934h44.699c5.485,0,9.934-4.441,9.934-9.934v-22.932h78.997v22.932c0,5.491,4.447,9.934,9.932,9.934
			h44.699c5.486,0,9.936-4.441,9.936-9.934v-22.932h23.826c5.486,0,9.936-4.442,9.936-9.933V9.934C353.569,4.441,349.12,0,343.636,0
			z M156.378,411.625h-24.832v-12.997h24.832V411.625z M299.94,411.625h-24.832v-12.997h24.832V411.625z M333.702,378.762h-23.828
			h-44.699h-98.862h-44.699H97.79V19.866h235.915v358.896H333.702z"/>
		<path d="M215.746,248.34c54.087,0,98.091-44.002,98.091-98.092c0-54.089-44.004-98.09-98.091-98.09
			c-54.087,0-98.091,44.001-98.091,98.09C117.655,204.338,161.659,248.34,215.746,248.34z M215.746,72.024
			c43.132,0,78.224,35.086,78.224,78.224c0,43.128-35.092,78.225-78.224,78.225c-43.133,0-78.225-35.097-78.225-78.225
			C137.521,107.11,172.613,72.024,215.746,72.024z"/>
		<path d="M215.746,203.64c29.441,0,53.39-23.95,53.39-53.392c0-29.439-23.949-53.391-53.39-53.391s-53.392,23.951-53.392,53.391
			C162.354,179.689,186.306,203.64,215.746,203.64z M215.746,116.725c18.486,0,33.525,15.035,33.525,33.523
			c0,18.479-15.039,33.525-33.525,33.525s-33.524-15.047-33.524-33.525C182.222,131.76,197.26,116.725,215.746,116.725z"/>
		<path d="M215.746,259.506c-21.225,0-38.491,17.266-38.491,38.49c0,21.224,17.267,38.492,38.491,38.492s38.492-17.27,38.492-38.492
			C254.237,276.771,236.97,259.506,215.746,259.506z M215.746,316.621c-10.271,0-18.625-8.363-18.625-18.625
			c0-10.273,8.354-18.625,18.625-18.625c10.269,0,18.625,8.352,18.625,18.625C234.37,308.258,226.015,316.621,215.746,316.621z"/>
	</g>
</g>
<g>
</g>
<g>
</g>
<g>
</g>
<g>
</g>
<g>
</g>
<g>
</g>
<g>
</g>
<g>
</g>
<g>
</g>
<g>
</g>
<g>
</g>
<g>
</g>
<g>
</g>
<g>
</g>
<g>
</g>
</svg>
