<?xml version="1.0" encoding="iso-8859-1"?>
<!-- Generator: Adobe Illustrator 19.0.0, SVG Export Plug-In . SVG Version: 6.00 Build 0)  -->
<svg version="1.1" id="Layer_1" xmlns="http://www.w3.org/2000/svg" xmlns:xlink="http://www.w3.org/1999/xlink" x="0px" y="0px"
	 viewBox="0 0 512 512" style="enable-background:new 0 0 512 512;" xml:space="preserve">
<g>
	<g>
		<path d="M497.509,0H14.491C9.156,0,4.83,4.325,4.83,9.66V502.34c0,5.335,4.325,9.66,9.66,9.66h483.019
			c5.335,0,9.66-4.325,9.66-9.66V9.66C507.17,4.325,502.844,0,497.509,0z M487.849,492.679H24.151V19.321h463.698V492.679z"/>
	</g>
</g>
<g>
	<g>
		<path d="M92.981,48.302H54.34c-5.34,0-9.66,4.321-9.66,9.66s4.321,9.66,9.66,9.66h38.642c5.34,0,9.66-4.321,9.66-9.66
			S98.321,48.302,92.981,48.302z"/>
	</g>
</g>
<g>
	<g>
		<path d="M343.028,163.038c-4.302-3.151-10.34-2.245-13.51,2.057c-3.16,4.292-2.236,10.339,2.057,13.509
			c32.066,23.604,51.217,61.434,51.217,101.198c0,69.245-56.34,125.585-125.585,125.585c-69.245,0-125.585-56.34-125.585-125.585
			c0-42.519,21.274-81.83,56.906-105.151c4.462-2.924,5.717-8.915,2.793-13.377c-2.925-4.462-8.915-5.707-13.377-2.792
			c-41.104,26.906-65.642,72.264-65.642,121.321c0,79.906,65,144.906,144.906,144.906c79.906,0,144.906-65,144.906-144.906
			C402.113,233.925,380.028,190.274,343.028,163.038z"/>
	</g>
</g>
<g>
	<g>
		<path d="M256,86.594c-5.34,0-9.66,4.321-9.66,9.66v115.924c0,5.34,4.321,9.66,9.66,9.66c5.34,0,9.66-4.321,9.66-9.66V96.255
			C265.66,90.915,261.34,86.594,256,86.594z"/>
	</g>
</g>
<g>
</g>
<g>
</g>
<g>
</g>
<g>
</g>
<g>
</g>
<g>
</g>
<g>
</g>
<g>
</g>
<g>
</g>
<g>
</g>
<g>
</g>
<g>
</g>
<g>
</g>
<g>
</g>
<g>
</g>
</svg>
