<?xml version="1.0" encoding="iso-8859-1"?>
<!-- Generator: Adobe Illustrator 19.0.0, SVG Export Plug-In . SVG Version: 6.00 Build 0)  -->
<svg version="1.1" id="Layer_1" xmlns="http://www.w3.org/2000/svg" xmlns:xlink="http://www.w3.org/1999/xlink" x="0px" y="0px"
	 viewBox="0 0 502 502" style="enable-background:new 0 0 502 502;" xml:space="preserve">
<g>
	<g>
		<g>
			<path d="M439.466,303.472L138.922,2.929c-3.907-3.905-10.237-3.905-14.143,0c-42.028,42.028-65.174,97.907-65.174,157.343
				s23.147,115.315,65.174,157.343c42.029,42.027,97.907,65.173,157.343,65.173c59.437,0,115.316-23.146,157.344-65.174
				c1.875-1.875,2.929-4.419,2.929-7.071C442.395,307.891,441.341,305.347,439.466,303.472z M138.922,303.473
				c-38.251-38.25-59.316-89.107-59.316-143.201c0-50.746,18.542-98.646,52.415-135.959L418.08,310.372
				C338.694,382.361,215.513,380.064,138.922,303.473z"/>
			<path d="M105.168,156.603c-5.521,0.156-9.869,4.758-9.713,10.279c1.348,47.625,20.653,92.415,54.357,126.12
				c1.953,1.953,4.511,2.929,7.071,2.929s5.118-0.976,7.072-2.929c3.905-3.906,3.905-10.238,0-14.143
				c-30.077-30.077-47.305-70.045-48.508-112.543C115.291,160.795,110.692,156.461,105.168,156.603z"/>
			<path d="M106.568,138.803c0.624,0.117,1.244,0.174,1.857,0.174c4.716,0,8.915-3.353,9.818-8.156
				c2.161-11.509,5.55-22.801,10.072-33.562c2.139-5.091-0.253-10.953-5.344-13.093c-5.095-2.141-10.954,0.253-13.094,5.344
				c-5.07,12.064-8.869,24.721-11.291,37.62C97.566,132.557,101.14,137.784,106.568,138.803z"/>
			<path d="M306.512,145.586c2.559,0,5.118-0.976,7.071-2.929l18.671-18.672c5.803,3.361,12.407,5.16,19.292,5.16
				c10.31,0,20.001-4.015,27.29-11.304c7.291-7.29,11.306-16.982,11.306-27.292c0.002-10.309-4.013-20.001-11.303-27.29
				c-7.29-7.29-16.981-11.305-27.291-11.305c-10.31,0-20.001,4.015-27.291,11.304c-12.603,12.603-14.644,31.823-6.137,46.577
				l-18.679,18.679c-3.905,3.905-3.905,10.237,0,14.143C301.394,144.61,303.953,145.586,306.512,145.586z M338.4,77.4
				c3.512-3.512,8.182-5.446,13.148-5.446s9.637,1.934,13.149,5.447c3.512,3.512,5.446,8.182,5.446,13.148
				c0.001,4.967-1.934,9.637-5.446,13.149c-3.513,3.513-8.183,5.447-13.149,5.447c-4.966,0-9.637-1.934-13.148-5.447
				C331.149,96.448,331.149,84.651,338.4,77.4z"/>
			<path d="M327.854,412.425c-1.38-4.052-5.187-6.777-9.467-6.777h-56.939v-5.167c0-5.523-4.478-10-10-10c-5.522,0-10,4.477-10,10
				v5.167h-56.939c-4.28,0-8.087,2.725-9.467,6.777l-25.995,76.352c-1.039,3.054-0.542,6.421,1.336,9.044
				c1.878,2.623,4.905,4.179,8.131,4.179h185.87c3.226,0,6.253-1.556,8.131-4.179c1.877-2.623,2.374-5.99,1.335-9.044
				L327.854,412.425z M172.482,482l19.186-56.352h119.561L330.414,482H172.482z"/>
		</g>
	</g>
</g>
<g>
</g>
<g>
</g>
<g>
</g>
<g>
</g>
<g>
</g>
<g>
</g>
<g>
</g>
<g>
</g>
<g>
</g>
<g>
</g>
<g>
</g>
<g>
</g>
<g>
</g>
<g>
</g>
<g>
</g>
</svg>
