<?xml version="1.0" encoding="iso-8859-1"?>
<!-- Generator: Adobe Illustrator 19.0.0, SVG Export Plug-In . SVG Version: 6.00 Build 0)  -->
<svg version="1.1" id="Layer_1" xmlns="http://www.w3.org/2000/svg" xmlns:xlink="http://www.w3.org/1999/xlink" x="0px" y="0px"
	 viewBox="0 0 512 512" style="enable-background:new 0 0 512 512;" xml:space="preserve">
<g>
	<g>
		<g>
			<path d="M293.333,266.532c0-20.587-16.747-37.333-37.333-37.333s-37.333,16.747-37.333,37.333s16.747,37.333,37.333,37.333
				S293.333,287.226,293.333,266.532z M256,282.532c-8.853,0-16-7.147-16-16s7.147-16,16-16s16,7.147,16,16
				C272,275.386,264.853,282.532,256,282.532z"/>
			<path d="M346.667,269.412c0-51.627-40.64-93.547-90.667-93.547s-90.667,42.027-90.667,93.547
				c0,38.613,22.507,72.747,57.387,86.933c5.44,2.24,11.733-0.427,13.867-5.867c2.24-5.44-0.427-11.733-5.867-13.867
				c-26.773-10.987-44.053-37.333-44.053-67.2c0-39.787,31.147-72.213,69.333-72.213s69.333,32.427,69.333,72.213
				c0,29.867-17.28,56.32-44.053,67.2c-5.44,2.24-8.107,8.427-5.867,13.867c2.24,5.44,8.427,8.107,13.867,5.867
				C324.16,342.159,346.667,308.026,346.667,269.412z"/>
			<path d="M405.333,267.812c0-80.107-66.987-145.28-149.333-145.28s-149.333,65.173-149.333,145.28
				c0,55.573,33.387,106.987,85.12,131.093c5.333,2.453,11.733,0.213,14.187-5.227c2.453-5.44,0.213-11.733-5.227-14.187
				c-44.267-20.587-72.853-64.427-72.853-111.68c0-68.373,57.387-123.947,128-123.947s128,55.573,128,123.947
				c0,47.36-28.587,91.2-72.853,111.68c-5.333,2.453-7.68,8.853-5.227,14.187c2.453,5.333,8.853,7.68,14.187,5.227
				C371.947,374.799,405.333,323.386,405.333,267.812z"/>
			<path d="M458.667,271.972c0-111.787-90.88-202.667-202.667-202.667S53.333,160.185,53.333,271.972
				c-0.107,75.947,42.347,145.493,109.973,180.16c5.227,2.773,11.627,0.853,14.507-4.267c2.773-5.227,0.853-11.627-4.267-14.507
				c-0.107-0.107-0.213-0.107-0.32-0.213c-60.693-31.04-98.667-93.227-98.56-161.173c0-100.053,81.387-181.333,181.333-181.333
				s181.333,81.387,181.333,181.333c0.107,67.947-37.867,130.133-98.347,161.173c-5.333,2.56-7.467,8.96-4.907,14.293
				c2.56,5.333,8.96,7.467,14.293,4.907c0.107-0.107,0.213-0.107,0.32-0.213C416.32,417.466,458.773,347.812,458.667,271.972z"/>
			<path d="M256,15.865c-141.12,0-256,114.133-256,254.507c0,93.867,51.733,179.84,135.04,224.32
				c5.12,2.987,11.627,1.173,14.613-3.947c2.987-5.12,1.173-11.627-3.947-14.613c-0.213-0.107-0.427-0.213-0.64-0.32
				C68.693,435.065,21.333,356.346,21.333,270.372c0-128.533,105.28-233.173,234.667-233.173s234.667,104.533,234.667,233.173
				c0,85.973-47.467,164.693-123.733,205.44c-5.227,2.667-7.253,9.173-4.587,14.4c2.667,5.227,9.173,7.253,14.4,4.587
				c0.107,0,0.213-0.107,0.32-0.107C460.267,450.106,512,364.239,512,270.372C512,129.999,397.12,15.865,256,15.865z"/>
		</g>
	</g>
</g>
<g>
</g>
<g>
</g>
<g>
</g>
<g>
</g>
<g>
</g>
<g>
</g>
<g>
</g>
<g>
</g>
<g>
</g>
<g>
</g>
<g>
</g>
<g>
</g>
<g>
</g>
<g>
</g>
<g>
</g>
</svg>
