<?xml version="1.0" encoding="iso-8859-1"?>
<!-- Generator: Adobe Illustrator 19.0.0, SVG Export Plug-In . SVG Version: 6.00 Build 0)  -->
<svg version="1.1" id="Layer_1" xmlns="http://www.w3.org/2000/svg" xmlns:xlink="http://www.w3.org/1999/xlink" x="0px" y="0px"
	 viewBox="0 0 512 512" style="enable-background:new 0 0 512 512;" xml:space="preserve">
<g>
	<g>
		<path d="M256,0C114.62,0,0,114.611,0,256c0,141.38,114.62,256,256,256s256-114.62,256-256C512,114.611,397.38,0,256,0z M256,486.4
			C128.956,486.4,25.6,383.044,25.6,256S128.956,25.6,256,25.6S486.4,128.956,486.4,256S383.044,486.4,256,486.4z"/>
	</g>
</g>
<g>
	<g>
		<path d="M256,166.4c-49.485,0-89.6,40.115-89.6,89.6s40.115,89.6,89.6,89.6s89.6-40.115,89.6-89.6S305.485,166.4,256,166.4z
			 M256,320c-35.285,0-64-28.715-64-64c0-35.294,28.715-64,64-64s64,28.706,64,64C320,291.285,291.285,320,256,320z"/>
	</g>
</g>
<g>
	<g>
		<path d="M38.4,0C17.229,0,0,17.229,0,38.4s17.229,38.4,38.4,38.4s38.4-17.229,38.4-38.4S59.571,0,38.4,0z M38.4,51.2
			c-7.049,0-12.8-5.734-12.8-12.8c0-7.066,5.751-12.8,12.8-12.8c7.049,0,12.8,5.734,12.8,12.8C51.2,45.466,45.449,51.2,38.4,51.2z"
			/>
	</g>
</g>
<g>
	<g>
		<path d="M473.6,0c-21.171,0-38.4,17.229-38.4,38.4s17.229,38.4,38.4,38.4S512,59.571,512,38.4S494.771,0,473.6,0z M473.6,51.2
			c-7.049,0-12.8-5.734-12.8-12.8c0-7.066,5.751-12.8,12.8-12.8s12.8,5.734,12.8,12.8C486.4,45.466,480.649,51.2,473.6,51.2z"/>
	</g>
</g>
<g>
	<g>
		<path d="M38.4,435.2C17.229,435.2,0,452.429,0,473.6S17.229,512,38.4,512s38.4-17.229,38.4-38.4S59.571,435.2,38.4,435.2z
			 M38.4,486.4c-7.049,0-12.8-5.734-12.8-12.8c0-7.066,5.751-12.8,12.8-12.8c7.049,0,12.8,5.734,12.8,12.8
			C51.2,480.666,45.449,486.4,38.4,486.4z"/>
	</g>
</g>
<g>
	<g>
		<path d="M473.6,435.2c-21.171,0-38.4,17.229-38.4,38.4s17.229,38.4,38.4,38.4s38.4-17.229,38.4-38.4S494.771,435.2,473.6,435.2z
			 M473.6,486.4c-7.049,0-12.8-5.734-12.8-12.8c0-7.066,5.751-12.8,12.8-12.8s12.8,5.734,12.8,12.8
			C486.4,480.666,480.649,486.4,473.6,486.4z"/>
	</g>
</g>
<g>
</g>
<g>
</g>
<g>
</g>
<g>
</g>
<g>
</g>
<g>
</g>
<g>
</g>
<g>
</g>
<g>
</g>
<g>
</g>
<g>
</g>
<g>
</g>
<g>
</g>
<g>
</g>
<g>
</g>
</svg>
