<?xml version="1.0" encoding="iso-8859-1"?>
<!-- Generator: Adobe Illustrator 17.1.0, SVG Export Plug-In . SVG Version: 6.00 Build 0)  -->
<!DOCTYPE svg PUBLIC "-//W3C//DTD SVG 1.1//EN" "http://www.w3.org/Graphics/SVG/1.1/DTD/svg11.dtd">
<svg version="1.1" id="Capa_1" xmlns="http://www.w3.org/2000/svg" xmlns:xlink="http://www.w3.org/1999/xlink" x="0px" y="0px"
	 viewBox="0 0 427.791 427.791" style="enable-background:new 0 0 427.791 427.791;" xml:space="preserve">
<path id="XMLID_165_" d="M213.896,203.964c15.975,0,28.971-12.997,28.971-28.972s-12.996-28.971-28.971-28.971
	c-15.976,0-28.973,12.996-28.973,28.971S197.92,203.964,213.896,203.964z M213.896,164.021c6.049,0,10.971,4.922,10.971,10.971
	c0,6.05-4.922,10.972-10.971,10.972c-6.051,0-10.973-4.922-10.973-10.972C202.923,168.943,207.845,164.021,213.896,164.021z
	 M172.823,274.699c-1.596,3.103-4.746,4.885-8.011,4.885c-1.386,0-2.792-0.321-4.109-0.999
	c-39.006-20.064-63.236-59.759-63.236-103.593c0-43.833,24.23-83.527,63.236-103.593c4.422-2.275,9.848-0.533,12.12,3.886
	c2.274,4.42,0.534,9.847-3.886,12.12c-32.982,16.967-53.471,50.528-53.471,87.587c0,37.06,20.488,70.621,53.471,87.587
	C173.357,264.853,175.098,270.278,172.823,274.699z M330.326,174.992c0,43.833-24.231,83.527-63.237,103.593
	c-1.317,0.678-2.724,0.999-4.109,0.999c-3.266,0-6.415-1.782-8.011-4.885c-2.274-4.42-0.534-9.847,3.886-12.12
	c32.982-16.967,53.472-50.528,53.472-87.587c0-37.058-20.489-70.619-53.472-87.587c-4.42-2.273-6.16-7.7-3.886-12.12
	c2.273-4.421,7.702-6.159,12.12-3.886C306.095,91.466,330.326,131.16,330.326,174.992z M335.912,0H91.879
	C65.85,0,44.674,21.177,44.674,47.206v371.585c0,4.971,4.029,9,9,9h71.69c3.179,0,6.121-1.677,7.741-4.41l17.774-29.979h126.032
	l17.772,29.979c1.621,2.733,4.563,4.41,7.742,4.41h71.69c4.971,0,9-4.029,9-9V47.206C383.117,21.177,361.941,0,335.912,0z
	 M365.117,409.791h-57.563l-17.772-29.979c-1.621-2.733-4.563-4.41-7.742-4.41H145.753c-3.178,0-6.121,1.677-7.742,4.41
	l-17.773,29.979H62.674V47.206C62.674,31.102,75.775,18,91.879,18h244.033c16.104,0,29.205,13.102,29.205,29.206V409.791z
	 M145.824,174.992c0,37.534,30.537,68.071,68.071,68.071s68.071-30.537,68.071-68.071c0-37.535-30.537-68.071-68.071-68.071
	S145.824,137.457,145.824,174.992z M213.896,124.921c27.609,0,50.071,22.462,50.071,50.071s-22.462,50.071-50.071,50.071
	s-50.071-22.462-50.071-50.071S186.286,124.921,213.896,124.921z M233.509,329.197c0,4.971-4.029,9-9,9h-21.227
	c-4.971,0-9-4.029-9-9s4.029-9,9-9h21.227C229.479,320.197,233.509,324.227,233.509,329.197z"/>
<g>
</g>
<g>
</g>
<g>
</g>
<g>
</g>
<g>
</g>
<g>
</g>
<g>
</g>
<g>
</g>
<g>
</g>
<g>
</g>
<g>
</g>
<g>
</g>
<g>
</g>
<g>
</g>
<g>
</g>
</svg>
